<svg width="64" height="64" viewBox="0 0 256 256" fill="none" xmlns="http://www.w3.org/2000/svg">
  <rect width="256" height="256" rx="64" fill="#08131D"/>
  <defs>
    <linearGradient id="favGradient" x1="42" y1="28" x2="218" y2="226" gradientUnits="userSpaceOnUse">
      <stop offset="0" stop-color="#20F6EC"/>
      <stop offset="0.5" stop-color="#4093FF"/>
      <stop offset="1" stop-color="#7A5CFF"/>
    </linearGradient>
  </defs>
  <path d="M84 26C59.6995 26 40 45.6995 40 70V103.41C40 111.861 36.9222 120.022 31.3401 126.367L18.7173 140.713C15.6358 144.216 15.5621 149.402 18.5431 152.992C27.1173 163.319 43.8131 178.054 75.1004 185.546C77.3944 186.095 79.4644 183.628 78.2696 181.58L67.1804 162.555C64.5338 158.016 63.14 152.855 63.14 147.599V113.173C63.14 93.5871 73.7957 75.5495 89.0115 66.1096L106.15 55.482C110.636 52.7001 107.538 46 102.26 46H84V26Z" fill="url(#favGradient)"/>
  <path d="M123 34C98.6995 34 79 53.6995 79 78V111.41C79 119.861 75.9222 128.022 70.3401 134.367L57.7173 148.713C54.6358 152.216 54.5621 157.402 57.5431 160.992C66.1173 171.319 82.8131 186.054 114.1 193.546C116.394 194.095 118.464 191.628 117.27 189.58L106.18 170.555C103.534 166.016 102.14 160.855 102.14 155.599V121.173C102.14 101.587 112.796 83.5495 128.012 74.1096L145.15 63.482C149.636 60.7001 146.538 54 141.26 54H123V34Z" fill="url(#favGradient)"/>
  <path d="M136 48H168C192.301 48 212 67.6995 212 92V125.41C212 133.861 215.078 142.022 220.66 148.367L233.283 162.713C236.364 166.216 236.438 171.402 233.457 174.992C224.883 185.319 208.187 200.054 176.9 207.546C174.606 208.095 172.536 205.628 173.73 203.58L184.82 184.555C187.466 180.016 188.86 174.855 188.86 169.599V135.173C188.86 115.587 178.204 97.5495 162.988 88.1096L145.85 77.482C141.364 74.7001 144.462 68 149.74 68H168V48H136Z" fill="url(#favGradient)" opacity="0.9"/>
  <path d="M154 38H187C211.301 38 231 57.6995 231 82V115.41C231 123.861 234.078 132.022 239.66 138.367L252.283 152.713C255.364 156.216 255.438 161.402 252.457 164.992C243.883 175.319 227.187 190.054 195.9 197.546C193.606 198.095 191.536 195.628 192.73 193.58L203.82 174.555C206.466 170.016 207.86 164.855 207.86 159.599V125.173C207.86 105.587 197.204 87.5495 181.988 78.1096L164.85 67.482C160.364 64.7001 163.462 58 168.74 58H187V38H154Z" fill="url(#favGradient)" opacity="0.58"/>
</svg>
