<svg width="920" height="256" viewBox="0 0 920 256" fill="none" xmlns="http://www.w3.org/2000/svg">
  <defs>
    <linearGradient id="suimeGradient" x1="88" y1="48" x2="322" y2="212" gradientUnits="userSpaceOnUse">
      <stop offset="0" stop-color="#20F6EC"/>
      <stop offset="0.52" stop-color="#4D8DFF"/>
      <stop offset="1" stop-color="#7A5CFF"/>
    </linearGradient>
    <linearGradient id="suimeWordGradient" x1="360" y1="58" x2="840" y2="198" gradientUnits="userSpaceOnUse">
      <stop offset="0" stop-color="#F9FCFF"/>
      <stop offset="0.34" stop-color="#E7F3FF"/>
      <stop offset="0.66" stop-color="#35E7EF"/>
      <stop offset="1" stop-color="#159CFF"/>
    </linearGradient>
    <filter id="suimeGlow" x="0" y="0" width="920" height="256" filterUnits="userSpaceOnUse" color-interpolation-filters="sRGB">
      <feFlood flood-opacity="0" result="BackgroundImageFix"/>
      <feBlend mode="normal" in="SourceGraphic" in2="BackgroundImageFix" result="shape"/>
      <feGaussianBlur stdDeviation="18" result="effect1_foregroundBlur"/>
    </filter>
  </defs>
  <g filter="url(#suimeGlow)" opacity="0.28">
    <ellipse cx="208" cy="132" rx="132" ry="70" fill="#20F6EC"/>
    <ellipse cx="640" cy="132" rx="236" ry="72" fill="#35E7EF"/>
  </g>
  <g>
    <path d="M160 66C135.667 66 116 85.6995 116 110V143.41C116 151.861 112.922 160.022 107.34 166.367L94.7173 180.713C91.6358 184.216 91.5621 189.402 94.5431 192.992C103.117 203.319 119.813 218.054 151.1 225.546C153.394 226.095 155.464 223.628 154.27 221.58L143.18 202.555C140.534 198.016 139.14 192.855 139.14 187.599V153.173C139.14 133.587 149.796 115.549 165.012 106.11L182.15 95.482C186.636 92.7001 183.538 86 178.26 86H160V66Z" fill="url(#suimeGradient)"/>
    <path d="M199 74C174.667 74 155 93.6995 155 118V151.41C155 159.861 151.922 168.022 146.34 174.367L133.717 188.713C130.636 192.216 130.562 197.402 133.543 200.992C142.117 211.319 158.813 226.054 190.1 233.546C192.394 234.095 194.464 231.628 193.27 229.58L182.18 210.555C179.534 206.016 178.14 200.855 178.14 195.599V161.173C178.14 141.587 188.796 123.549 204.012 114.11L221.15 103.482C225.636 100.7 222.538 94 217.26 94H199V74Z" fill="url(#suimeGradient)"/>
    <path d="M212 88H244C268.301 88 288 107.699 288 132V165.41C288 173.861 291.078 182.022 296.66 188.367L309.283 202.713C312.364 206.216 312.438 211.402 309.457 214.992C300.883 225.319 284.187 240.054 252.9 247.546C250.606 248.095 248.536 245.628 249.73 243.58L260.82 224.555C263.466 220.016 264.86 214.855 264.86 209.599V175.173C264.86 155.587 254.204 137.549 238.988 128.11L221.85 117.482C217.364 114.7 220.462 108 225.74 108H244V88H212Z" fill="url(#suimeGradient)" opacity="0.9"/>
    <path d="M230 78H263C287.301 78 307 97.6995 307 122V155.41C307 163.861 310.078 172.022 315.66 178.367L328.283 192.713C331.364 196.216 331.438 201.402 328.457 204.992C319.883 215.319 303.187 230.054 271.9 237.546C269.606 238.095 267.536 235.628 268.73 233.58L279.82 214.555C282.466 210.016 283.86 204.855 283.86 199.599V165.173C283.86 145.587 273.204 127.549 257.988 118.11L240.85 107.482C236.364 104.7 239.462 98 244.74 98H263V78H230Z" fill="url(#suimeGradient)" opacity="0.58"/>
    <rect x="182" y="116" width="28" height="8" rx="4" fill="#1A2340" opacity="0.16"/>
    <rect x="178" y="138" width="40" height="8" rx="4" fill="#1A2340" opacity="0.16"/>
    <rect x="174" y="160" width="48" height="8" rx="4" fill="#1A2340" opacity="0.16"/>
    <text x="372" y="172" fill="url(#suimeWordGradient)" font-family="Segoe UI, Inter, Arial, sans-serif" font-size="118" font-weight="700" letter-spacing="0">SuiMe</text>
  </g>
</svg>
